%TF.GenerationSoftware,Altium Limited,Altium Designer,24.4.1 (13)*%
G04 Layer_Physical_Order=1*
G04 Layer_Color=255*
%FSLAX45Y45*%
%MOMM*%
%TF.SameCoordinates,881402D5-0203-4901-B5EA-5A78FED384BD*%
%TF.FilePolarity,Positive*%
%TF.FileFunction,Copper,L1,Top,Signal*%
%TF.Part,Single*%
G01*
G75*
%TA.AperFunction,SMDPad,CuDef*%
%ADD10R,0.80000X0.90000*%
%ADD11R,0.70000X1.93000*%
%ADD12R,0.85872X0.91213*%
%ADD13R,0.91213X0.95872*%
%TA.AperFunction,Conductor*%
%ADD14C,0.25400*%
%TA.AperFunction,ComponentPad*%
%ADD15C,1.55000*%
%ADD16R,1.55000X1.55000*%
%TA.AperFunction,ViaPad*%
%ADD17C,0.70000*%
D10*
X14939017Y5597117D02*
D03*
Y5767117D02*
D03*
X14723117Y5597117D02*
D03*
Y5767117D02*
D03*
X15687517Y5613517D02*
D03*
Y5783517D02*
D03*
X14783116Y4047117D02*
D03*
Y4217117D02*
D03*
X15683116Y4067117D02*
D03*
Y4237117D02*
D03*
D11*
X14778616Y4461117D02*
D03*
X14905617D02*
D03*
X15032617D02*
D03*
X15159618D02*
D03*
X15286617D02*
D03*
X15413617D02*
D03*
X15540617D02*
D03*
X15667616D02*
D03*
Y5403117D02*
D03*
X15540617D02*
D03*
X15413617D02*
D03*
X15286617D02*
D03*
X15159618D02*
D03*
X15032617D02*
D03*
X14905617D02*
D03*
X14778616D02*
D03*
D12*
X15195445Y4192117D02*
D03*
X15350787D02*
D03*
D13*
X14993117Y4194788D02*
D03*
Y4049446D02*
D03*
D14*
X15683116Y4069417D02*
X15710417Y4042117D01*
X15683116Y4069417D02*
Y4072117D01*
X15710417Y4042117D02*
X15823116D01*
X14192317Y4513617D02*
X14217114Y4488819D01*
X14316414D02*
X14603117Y4202117D01*
X14217114Y4488819D02*
X14316414D01*
X14723117Y5695096D02*
Y5767117D01*
X14708238Y5680217D02*
X14723117Y5695096D01*
X14483118Y5495999D02*
X14667336Y5680217D01*
X14708238D01*
X14723117Y5502417D02*
Y5597117D01*
X15674817Y5378217D02*
Y5600817D01*
X14723117Y5502417D02*
X14785817Y5439717D01*
X14563718Y5901017D02*
X15575015D01*
X14667336Y5850217D02*
X14860916D01*
X15674817Y5600817D02*
X15687517Y5613517D01*
X15575015Y5901017D02*
X15687517Y5788517D01*
X14860916Y5850217D02*
X14939017Y5772117D01*
Y5767117D02*
Y5772117D01*
X15687517Y5783517D02*
Y5788517D01*
X15545467Y5380567D02*
X15547816Y5378217D01*
X15545467Y5380567D02*
Y5539767D01*
X14785817Y5378217D02*
Y5439717D01*
X14912817Y5378217D02*
Y5596917D01*
X15350787Y4189446D02*
X15353458Y4192117D01*
X15503117D01*
X14167233Y4375217D02*
X14300015D01*
X14583116Y4092117D01*
X14738116D01*
X14162334Y4634116D02*
X14331117D01*
X14603117Y4362117D01*
X14217114Y4882932D02*
X14483118Y5148934D01*
Y5495999D01*
X14192317Y5275617D02*
X14217114Y5250819D01*
X15225606Y3941227D02*
Y4161957D01*
X15195445Y4192117D02*
X15225606Y4161957D01*
X15146497Y3862117D02*
X15225606Y3941227D01*
X14783116Y4047117D02*
Y4052117D01*
X14750816Y4079417D02*
X14755817D01*
X14783116Y4052117D01*
X14738116Y4092117D02*
X14750816Y4079417D01*
X14993117Y4047117D02*
Y4049446D01*
Y4047117D02*
X15098117Y3942117D01*
X15103117D01*
X14589816Y3862117D02*
X15146497D01*
X14192317Y4259617D02*
X14589816Y3862117D01*
X14025917Y4516534D02*
X14167233Y4375217D01*
X14025917Y4516534D02*
Y5526700D01*
X14167519Y5668302D01*
Y5758819D01*
X14192317Y5783617D01*
X14076717Y4719734D02*
Y5069500D01*
X14167519Y5160302D02*
Y5250819D01*
X14192317Y5275617D01*
X14076717Y5069500D02*
X14167519Y5160302D01*
X14217114Y4792415D02*
Y4882932D01*
X14076717Y4719734D02*
X14162334Y4634116D01*
X14192317Y4767617D02*
X14217114Y4792415D01*
X14192317Y5529617D02*
X14563718Y5901017D01*
X14192317Y5021617D02*
X14391425Y5220725D01*
Y5574307D02*
X14667336Y5850217D01*
X14391425Y5220725D02*
Y5574307D01*
X15350787Y4194788D02*
X15381023Y4225024D01*
X15398123D01*
X15547816Y4374717D01*
Y4436217D01*
X15674817Y4245417D02*
Y4436217D01*
Y4245417D02*
X15683116Y4237117D01*
X14912817Y4277417D02*
X14993117Y4197117D01*
Y4194788D02*
Y4197117D01*
X14912817Y4277417D02*
Y4436217D01*
X14993117Y4194788D02*
X14995787Y4192117D01*
X15195445D01*
X14785817Y4204817D02*
Y4436217D01*
D15*
X14192317Y5021617D02*
D03*
Y4767617D02*
D03*
Y4513617D02*
D03*
Y4259617D02*
D03*
Y5275617D02*
D03*
Y5529617D02*
D03*
Y5783617D02*
D03*
D16*
Y4005617D02*
D03*
D17*
X14603117Y4202117D02*
D03*
X15545467Y5539767D02*
D03*
X15503117Y4192117D02*
D03*
X14603117Y4362117D02*
D03*
X15823116Y4042117D02*
D03*
X15103117Y3942117D02*
D03*
%TF.MD5,7477dbf31fd3cd9b611db9f0f0a32af5*%
M02*
