%TF.GenerationSoftware,Altium Limited,Altium Designer,24.4.1 (13)*%
G04 Layer_Color=65535*
%FSLAX45Y45*%
%MOMM*%
%TF.SameCoordinates,881402D5-0203-4901-B5EA-5A78FED384BD*%
%TF.FilePolarity,Positive*%
%TF.FileFunction,Legend,Top*%
%TF.Part,Single*%
G01*
G75*
%TA.AperFunction,NonConductor*%
%ADD18C,0.25000*%
%ADD19C,0.20000*%
%ADD20C,0.25400*%
D18*
X14012817Y4005617D02*
G03*
X14012817Y4005617I-12500J0D01*
G01*
D19*
X14856517Y5597117D02*
Y5767117D01*
X15021516Y5597117D02*
Y5767117D01*
X14640617Y5597117D02*
Y5767117D01*
X14805617Y5597117D02*
Y5767117D01*
X15605017Y5613517D02*
Y5783517D01*
X15770016Y5613517D02*
Y5783517D01*
X14708917Y4592617D02*
Y5271617D01*
X15737317D01*
Y4592617D02*
Y5271617D01*
X14708917Y4592617D02*
X15737317D01*
X14708617Y4364617D02*
Y4557617D01*
X15152510Y4106510D02*
X15393723D01*
X15152510Y4277724D02*
X15393723D01*
X14907510Y4001510D02*
Y4242724D01*
X15078723Y4001510D02*
Y4242724D01*
X14065317Y3853617D02*
Y5935617D01*
Y3853617D02*
X14319318D01*
Y5935617D01*
X14065317D02*
X14319318D01*
X14700616Y4047117D02*
Y4217117D01*
X14865616Y4047117D02*
Y4217117D01*
X15600616Y4067117D02*
Y4237117D01*
X15765616Y4067117D02*
Y4237117D01*
D20*
X16410867Y5805150D02*
Y5906717D01*
X16334692D01*
Y5855934D01*
Y5906717D01*
X16258516D01*
X16410867Y5652799D02*
Y5754367D01*
X16334692D01*
Y5703583D01*
Y5754367D01*
X16258516D01*
X16385475Y5500449D02*
X16410867Y5525841D01*
Y5576624D01*
X16385475Y5602016D01*
X16360085D01*
X16334692Y5576624D01*
Y5525841D01*
X16309300Y5500449D01*
X16283908D01*
X16258516Y5525841D01*
Y5576624D01*
X16283908Y5602016D01*
X16360085Y5297315D02*
X16258516Y5246531D01*
X16360085Y5195747D01*
X16258516Y5043397D02*
Y5144964D01*
X16360085Y5043397D01*
X16385475D01*
X16410867Y5068788D01*
Y5119572D01*
X16385475Y5144964D01*
X16334692Y4840262D02*
Y4738695D01*
X16410867Y4535561D02*
X16258516D01*
X16309300Y4484777D01*
X16258516Y4433994D01*
X16410867D01*
X16258516Y4281643D02*
Y4383210D01*
X16360085Y4281643D01*
X16385475D01*
X16410867Y4307035D01*
Y4357818D01*
X16385475Y4383210D01*
X16410867Y4129292D02*
Y4230859D01*
X16334692D01*
X16360085Y4180076D01*
Y4154684D01*
X16334692Y4129292D01*
X16283908D01*
X16258516Y4154684D01*
Y4205468D01*
X16283908Y4230859D01*
X15029292Y5905158D02*
X14876941D01*
Y5981333D01*
X14902333Y6006725D01*
X14953116D01*
X14978508Y5981333D01*
Y5905158D01*
Y5955941D02*
X15029292Y6006725D01*
Y6133684D02*
X14876941D01*
X14953116Y6057509D01*
Y6159076D01*
X14799292Y5895158D02*
X14646941D01*
Y5971333D01*
X14672333Y5996725D01*
X14723116D01*
X14748508Y5971333D01*
Y5895158D01*
Y5945941D02*
X14799292Y5996725D01*
X14672333Y6047509D02*
X14646941Y6072900D01*
Y6123684D01*
X14672333Y6149076D01*
X14697723D01*
X14723116Y6123684D01*
Y6098292D01*
Y6123684D01*
X14748508Y6149076D01*
X14773900D01*
X14799292Y6123684D01*
Y6072900D01*
X14773900Y6047509D01*
X15566158Y5885942D02*
Y6038292D01*
X15642332D01*
X15667725Y6012901D01*
Y5962117D01*
X15642332Y5936725D01*
X15566158D01*
X15616940D02*
X15667725Y5885942D01*
X15718507Y6038292D02*
X15820076D01*
Y6012901D01*
X15718507Y5911334D01*
Y5885942D01*
X15789742Y4591971D02*
Y4642754D01*
Y4617363D01*
X15942091D01*
Y4591971D01*
Y4642754D01*
X15815134Y4820497D02*
X15789742Y4795105D01*
Y4744321D01*
X15815134Y4718930D01*
X15916701D01*
X15942091Y4744321D01*
Y4795105D01*
X15916701Y4820497D01*
X15942091Y4871280D02*
Y4922064D01*
Y4896672D01*
X15789742D01*
X15815134Y4871280D01*
X16175150Y5706717D02*
X16095175D01*
Y5666730D01*
X16108504Y5653401D01*
X16161819D01*
X16175150Y5666730D01*
Y5706717D01*
X16095175Y5586756D02*
Y5613414D01*
X16108504Y5626743D01*
X16135162D01*
X16148491Y5613414D01*
Y5586756D01*
X16135162Y5573427D01*
X16121832D01*
Y5626743D01*
X16095175Y5546769D02*
Y5506781D01*
X16108504Y5493453D01*
X16121832Y5506781D01*
Y5533440D01*
X16135162Y5546769D01*
X16148491Y5533440D01*
Y5493453D01*
X16095175Y5466795D02*
Y5440136D01*
Y5453465D01*
X16148491D01*
Y5466795D01*
X16068517Y5373491D02*
Y5360162D01*
X16081847Y5346833D01*
X16148491D01*
Y5386820D01*
X16135162Y5400149D01*
X16108504D01*
X16095175Y5386820D01*
Y5346833D01*
Y5320175D02*
X16148491D01*
Y5280188D01*
X16135162Y5266859D01*
X16095175D01*
Y5200214D02*
Y5226872D01*
X16108504Y5240201D01*
X16135162D01*
X16148491Y5226872D01*
Y5200214D01*
X16135162Y5186885D01*
X16121832D01*
Y5240201D01*
X16175150Y5106911D02*
X16095175D01*
Y5146898D01*
X16108504Y5160227D01*
X16135162D01*
X16148491Y5146898D01*
Y5106911D01*
X16175150Y5000278D02*
X16095175D01*
Y4960291D01*
X16108504Y4946962D01*
X16121832D01*
X16135162D01*
X16148491Y4960291D01*
Y5000278D01*
Y4920304D02*
X16108504D01*
X16095175Y4906975D01*
Y4866988D01*
X16081847D01*
X16068517Y4880317D01*
Y4893646D01*
X16095175Y4866988D02*
X16148491D01*
X16161819Y4707040D02*
X16175150Y4720369D01*
Y4747027D01*
X16161819Y4760356D01*
X16148491D01*
X16135162Y4747027D01*
Y4720369D01*
X16121832Y4707040D01*
X16108504D01*
X16095175Y4720369D01*
Y4747027D01*
X16108504Y4760356D01*
X16095175Y4640394D02*
Y4667052D01*
X16108504Y4680382D01*
X16135162D01*
X16148491Y4667052D01*
Y4640394D01*
X16135162Y4627065D01*
X16121832D01*
Y4680382D01*
X16148491Y4587078D02*
Y4560420D01*
X16135162Y4547091D01*
X16095175D01*
Y4587078D01*
X16108504Y4600407D01*
X16121832Y4587078D01*
Y4547091D01*
X16095175Y4520433D02*
X16148491D01*
Y4480446D01*
X16135162Y4467117D01*
X16095175D01*
Y4360485D02*
X16175150D01*
X16148491Y4333827D01*
X16175150Y4307169D01*
X16095175D01*
X13546516Y5872468D02*
X13597301D01*
X13571909D01*
Y5720117D01*
X13546516D01*
X13597301D01*
X13749651Y5872468D02*
X13698866D01*
X13673476Y5847076D01*
Y5745509D01*
X13698866Y5720117D01*
X13749651D01*
X13775043Y5745509D01*
Y5847076D01*
X13749651Y5872468D01*
X13825826Y5847076D02*
X13851218Y5872468D01*
X13902000D01*
X13927393Y5847076D01*
Y5821684D01*
X13902000Y5796292D01*
X13876610D01*
X13902000D01*
X13927393Y5770901D01*
Y5745509D01*
X13902000Y5720117D01*
X13851218D01*
X13825826Y5745509D01*
X13546516Y5605768D02*
X13597301D01*
X13571909D01*
Y5453417D01*
X13546516D01*
X13597301D01*
X13749651Y5605768D02*
X13698866D01*
X13673476Y5580376D01*
Y5478809D01*
X13698866Y5453417D01*
X13749651D01*
X13775043Y5478809D01*
Y5580376D01*
X13749651Y5605768D01*
X13927393Y5453417D02*
X13825826D01*
X13927393Y5554984D01*
Y5580376D01*
X13902000Y5605768D01*
X13851218D01*
X13825826Y5580376D01*
X13546516Y5339068D02*
X13597301D01*
X13571909D01*
Y5186717D01*
X13546516D01*
X13597301D01*
X13749651Y5339068D02*
X13698866D01*
X13673476Y5313676D01*
Y5212109D01*
X13698866Y5186717D01*
X13749651D01*
X13775043Y5212109D01*
Y5313676D01*
X13749651Y5339068D01*
X13825826Y5186717D02*
X13876610D01*
X13851218D01*
Y5339068D01*
X13825826Y5313676D01*
X13546516Y5085068D02*
X13597301D01*
X13571909D01*
Y4932717D01*
X13546516D01*
X13597301D01*
X13749651Y5085068D02*
X13698866D01*
X13673476Y5059676D01*
Y4958109D01*
X13698866Y4932717D01*
X13749651D01*
X13775043Y4958109D01*
Y5059676D01*
X13749651Y5085068D01*
X13825826Y5059676D02*
X13851218Y5085068D01*
X13902000D01*
X13927393Y5059676D01*
Y4958109D01*
X13902000Y4932717D01*
X13851218D01*
X13825826Y4958109D01*
Y5059676D01*
X13648083Y4805676D02*
X13622691Y4831068D01*
X13571909D01*
X13546516Y4805676D01*
Y4704109D01*
X13571909Y4678717D01*
X13622691D01*
X13648083Y4704109D01*
X13698866Y4831068D02*
Y4678717D01*
X13800433D01*
X13851218Y4831068D02*
Y4678717D01*
Y4729501D01*
X13952785Y4831068D01*
X13876610Y4754892D01*
X13952785Y4678717D01*
X13660783Y4551676D02*
X13635393Y4577068D01*
X13584608D01*
X13559216Y4551676D01*
Y4450109D01*
X13584608Y4424717D01*
X13635393D01*
X13660783Y4450109D01*
X13813133Y4551676D02*
X13787743Y4577068D01*
X13736958D01*
X13711568Y4551676D01*
Y4526284D01*
X13736958Y4500892D01*
X13787743D01*
X13813133Y4475501D01*
Y4450109D01*
X13787743Y4424717D01*
X13736958D01*
X13711568Y4450109D01*
X13559216Y4310376D02*
X13584608Y4335768D01*
X13635393D01*
X13660783Y4310376D01*
Y4284984D01*
X13635393Y4259592D01*
X13610001D01*
X13635393D01*
X13660783Y4234201D01*
Y4208809D01*
X13635393Y4183417D01*
X13584608D01*
X13559216Y4208809D01*
X13711568Y4284984D02*
X13762350Y4183417D01*
X13813133Y4284984D01*
X13863918Y4310376D02*
X13889310Y4335768D01*
X13940092D01*
X13965485Y4310376D01*
Y4284984D01*
X13940092Y4259592D01*
X13914700D01*
X13940092D01*
X13965485Y4234201D01*
Y4208809D01*
X13940092Y4183417D01*
X13889310D01*
X13863918Y4208809D01*
X13660783Y4056376D02*
X13635393Y4081768D01*
X13584608D01*
X13559216Y4056376D01*
Y3954809D01*
X13584608Y3929417D01*
X13635393D01*
X13660783Y3954809D01*
Y4005592D01*
X13610001D01*
X13711568Y3929417D02*
Y4081768D01*
X13813133Y3929417D01*
Y4081768D01*
X13863918D02*
Y3929417D01*
X13940092D01*
X13965485Y3954809D01*
Y4056376D01*
X13940092Y4081768D01*
X13863918D01*
X14865248Y3912900D02*
X14839856Y3938292D01*
X14789073D01*
X14763681Y3912900D01*
Y3811333D01*
X14789073Y3785942D01*
X14839856D01*
X14865248Y3811333D01*
X15017599Y3785942D02*
X14916032D01*
X15017599Y3887509D01*
Y3912900D01*
X14992207Y3938292D01*
X14941425D01*
X14916032Y3912900D01*
X15556158Y3815942D02*
Y3968293D01*
X15632333D01*
X15657726Y3942901D01*
Y3892117D01*
X15632333Y3866725D01*
X15556158D01*
X15606941D02*
X15657726Y3815942D01*
X15810075Y3968293D02*
X15759293Y3942901D01*
X15708508Y3892117D01*
Y3841334D01*
X15733900Y3815942D01*
X15784685D01*
X15810075Y3841334D01*
Y3866725D01*
X15784685Y3892117D01*
X15708508D01*
X15226158Y3895942D02*
Y4048292D01*
X15302333D01*
X15327725Y4022901D01*
Y3972117D01*
X15302333Y3946725D01*
X15226158D01*
X15276941D02*
X15327725Y3895942D01*
X15480077Y4048292D02*
X15378508D01*
Y3972117D01*
X15429292Y3997509D01*
X15454684D01*
X15480077Y3972117D01*
Y3921334D01*
X15454684Y3895942D01*
X15403900D01*
X15378508Y3921334D01*
X14448528Y3800272D02*
Y3952623D01*
X14524702D01*
X14550095Y3927231D01*
Y3876447D01*
X14524702Y3851056D01*
X14448528D01*
X14499310D02*
X14550095Y3800272D01*
X14702444D02*
X14600877D01*
X14702444Y3901839D01*
Y3927231D01*
X14677052Y3952623D01*
X14626270D01*
X14600877Y3927231D01*
X14193117Y6138293D02*
X14142332D01*
X14167725D01*
Y6011334D01*
X14142332Y5985942D01*
X14116942D01*
X14091550Y6011334D01*
X14243900Y5985942D02*
X14294684D01*
X14269292D01*
Y6138293D01*
X14243900Y6112901D01*
%TF.MD5,173515c7aadefc9932f0ff4c9aa6f3d2*%
M02*
