%TF.GenerationSoftware,Altium Limited,Altium Designer,24.4.1 (13)*%
G04 Layer_Color=0*
%FSLAX45Y45*%
%MOMM*%
%TF.SameCoordinates,62A203F9-3C5A-4200-B48A-7B08D2958CDC*%
%TF.FilePolarity,Positive*%
%TF.FileFunction,Plated,1,2,PTH,Drill*%
%TF.Part,Single*%
G01*
G75*
%TA.AperFunction,ComponentDrill*%
%ADD31C,0.88000*%
%ADD32C,1.02000*%
%TA.AperFunction,ViaDrill,NotFilled*%
%ADD33C,0.30480*%
D31*
X16179800Y7239000D02*
D03*
Y7493000D02*
D03*
Y7747000D02*
D03*
Y8001000D02*
D03*
Y8255000D02*
D03*
Y8509000D02*
D03*
Y8763000D02*
D03*
Y9017000D02*
D03*
Y9271000D02*
D03*
Y9525000D02*
D03*
D32*
X11684000Y7429500D02*
D03*
Y7683500D02*
D03*
Y7937500D02*
D03*
Y9207500D02*
D03*
Y8953500D02*
D03*
Y8699500D02*
D03*
Y8445500D02*
D03*
Y8191500D02*
D03*
D33*
X12652695Y8191517D02*
D03*
X12880898Y8677197D02*
D03*
X12726685Y8253715D02*
D03*
X15176500Y7823200D02*
D03*
X15341600Y7874000D02*
D03*
X15036800Y7315200D02*
D03*
X15176500Y7708900D02*
D03*
X15392400Y8153400D02*
D03*
X15522124Y7528893D02*
D03*
X12890500Y7505700D02*
D03*
X15798801Y7531100D02*
D03*
X14554201Y8826500D02*
D03*
%TF.MD5,b7a73aab88bfa039ed0323de14a9c1b4*%
M02*
