%TF.GenerationSoftware,Altium Limited,Altium Designer,24.4.1 (13)*%
G04 Layer_Physical_Order=2*
G04 Layer_Color=16711680*
%FSLAX45Y45*%
%MOMM*%
%TF.SameCoordinates,912A9E6C-26A1-424A-A32F-7B2CA38D8761*%
%TF.FilePolarity,Positive*%
%TF.FileFunction,Copper,L2,Bot,Signal*%
%TF.Part,Single*%
G01*
G75*
%TA.AperFunction,Conductor*%
%ADD14C,0.25400*%
%TA.AperFunction,ComponentPad*%
%ADD15C,1.55000*%
%ADD16R,1.55000X1.55000*%
%TA.AperFunction,ViaPad*%
%ADD17C,0.71120*%
G36*
X16128999Y3302000D02*
X13652499D01*
Y5842000D01*
X16128999D01*
Y3302000D01*
D02*
G37*
%LPC*%
G36*
X14199899Y5513100D02*
X14109700D01*
Y5422900D01*
X14199899D01*
Y5513100D01*
D02*
G37*
G36*
X14084300D02*
X13994099D01*
Y5422900D01*
X14084300D01*
Y5513100D01*
D02*
G37*
G36*
X14199899Y5397500D02*
X14109700D01*
Y5307300D01*
X14199899D01*
Y5397500D01*
D02*
G37*
G36*
X14084300D02*
X13994099D01*
Y5307300D01*
X14084300D01*
Y5397500D01*
D02*
G37*
G36*
X14110547Y5259100D02*
X14083453D01*
X14057281Y5252088D01*
X14033818Y5238540D01*
X14014661Y5219382D01*
X14001112Y5195918D01*
X13994099Y5169747D01*
Y5142653D01*
X14001112Y5116482D01*
X14014661Y5093018D01*
X14033818Y5073860D01*
X14057281Y5060312D01*
X14083453Y5053300D01*
X14110547D01*
X14136719Y5060312D01*
X14160182Y5073860D01*
X14179340Y5093018D01*
X14192888Y5116482D01*
X14199899Y5142653D01*
Y5169747D01*
X14192888Y5195918D01*
X14179340Y5219382D01*
X14160182Y5238540D01*
X14136719Y5252088D01*
X14110547Y5259100D01*
D02*
G37*
G36*
X15252699Y4886722D02*
Y4838700D01*
X15300722D01*
X15291679Y4860531D01*
X15274532Y4877679D01*
X15252699Y4886722D01*
D02*
G37*
G36*
X15227299D02*
X15205469Y4877679D01*
X15188321Y4860531D01*
X15179279Y4838700D01*
X15227299D01*
Y4886722D01*
D02*
G37*
G36*
X14110547Y5005100D02*
X14083453D01*
X14057281Y4998088D01*
X14033818Y4984540D01*
X14014661Y4965382D01*
X14001112Y4941918D01*
X13994099Y4915747D01*
Y4888653D01*
X14001112Y4862482D01*
X14014661Y4839018D01*
X14033818Y4819860D01*
X14057281Y4806312D01*
X14083453Y4799300D01*
X14110547D01*
X14136719Y4806312D01*
X14160182Y4819860D01*
X14179340Y4839018D01*
X14192888Y4862482D01*
X14199899Y4888653D01*
Y4915747D01*
X14192888Y4941918D01*
X14179340Y4965382D01*
X14160182Y4984540D01*
X14136719Y4998088D01*
X14110547Y5005100D01*
D02*
G37*
G36*
X15300722Y4813300D02*
X15252699D01*
Y4765278D01*
X15274532Y4774321D01*
X15291679Y4791469D01*
X15300722Y4813300D01*
D02*
G37*
G36*
X15227299D02*
X15179279D01*
X15188321Y4791469D01*
X15205469Y4774321D01*
X15227299Y4765278D01*
Y4813300D01*
D02*
G37*
G36*
X14110547Y4751100D02*
X14083453D01*
X14057281Y4744088D01*
X14033818Y4730540D01*
X14014661Y4711382D01*
X14001112Y4687918D01*
X13994099Y4661747D01*
Y4634653D01*
X14001112Y4608482D01*
X14001564Y4607701D01*
X13891731Y4497869D01*
X13883311Y4485266D01*
X13880353Y4470400D01*
Y3886200D01*
X13883311Y3871334D01*
X13891731Y3858732D01*
X14018732Y3731731D01*
X14027753Y3725703D01*
X14028879Y3723630D01*
X14030321Y3714224D01*
X14029919Y3710643D01*
X14014661Y3695382D01*
X14001112Y3671918D01*
X13994099Y3645747D01*
Y3618653D01*
X14001112Y3592482D01*
X14014661Y3569018D01*
X14033818Y3549860D01*
X14057281Y3536312D01*
X14083453Y3529300D01*
X14110547D01*
X14136719Y3536312D01*
X14160182Y3549860D01*
X14179340Y3569018D01*
X14192888Y3592482D01*
X14199899Y3618653D01*
Y3645747D01*
X14192888Y3671918D01*
X14179340Y3695382D01*
X14167068Y3707653D01*
X14172330Y3720353D01*
X14322209D01*
X14353540Y3689023D01*
Y3670874D01*
X14362820Y3648469D01*
X14379968Y3631321D01*
X14402374Y3622040D01*
X14426627D01*
X14449031Y3631321D01*
X14466179Y3648469D01*
X14475459Y3670874D01*
Y3695126D01*
X14466179Y3717531D01*
X14449031Y3734679D01*
X14426627Y3743960D01*
X14408476D01*
X14365768Y3786669D01*
X14353166Y3795089D01*
X14338300Y3798047D01*
X14172330D01*
X14167068Y3810747D01*
X14179340Y3823018D01*
X14192888Y3846482D01*
X14199899Y3872653D01*
Y3899747D01*
X14192888Y3925918D01*
X14179340Y3949382D01*
X14160182Y3968540D01*
X14136719Y3982088D01*
X14110547Y3989100D01*
X14083453D01*
X14057281Y3982088D01*
X14033818Y3968540D01*
X14014661Y3949382D01*
X14001112Y3925918D01*
X13994099Y3899747D01*
Y3884198D01*
X13981400Y3878937D01*
X13958047Y3902291D01*
Y4454309D01*
X14056500Y4552764D01*
X14057281Y4552312D01*
X14083453Y4545300D01*
X14110547D01*
X14136719Y4552312D01*
X14160182Y4565860D01*
X14179340Y4585018D01*
X14192888Y4608482D01*
X14199899Y4634653D01*
Y4661747D01*
X14192888Y4687918D01*
X14179340Y4711382D01*
X14160182Y4730540D01*
X14136719Y4744088D01*
X14110547Y4751100D01*
D02*
G37*
G36*
Y4497100D02*
X14083453D01*
X14057281Y4490088D01*
X14033818Y4476540D01*
X14014661Y4457382D01*
X14001112Y4433918D01*
X13994099Y4407747D01*
Y4380653D01*
X14001112Y4354482D01*
X14014661Y4331018D01*
X14033818Y4311860D01*
X14057281Y4298312D01*
X14083453Y4291300D01*
X14110547D01*
X14136719Y4298312D01*
X14160182Y4311860D01*
X14179340Y4331018D01*
X14192888Y4354482D01*
X14199899Y4380653D01*
Y4407747D01*
X14192888Y4433918D01*
X14179340Y4457382D01*
X14160182Y4476540D01*
X14136719Y4490088D01*
X14110547Y4497100D01*
D02*
G37*
G36*
X14846300Y4099322D02*
Y4051300D01*
X14894322D01*
X14885278Y4073131D01*
X14868130Y4090279D01*
X14846300Y4099322D01*
D02*
G37*
G36*
X14820900D02*
X14799069Y4090279D01*
X14781921Y4073131D01*
X14772878Y4051300D01*
X14820900D01*
Y4099322D01*
D02*
G37*
G36*
X14110547Y4243100D02*
X14083453D01*
X14057281Y4236088D01*
X14033818Y4222540D01*
X14014661Y4203382D01*
X14001112Y4179918D01*
X13994099Y4153747D01*
Y4126653D01*
X14001112Y4100482D01*
X14014661Y4077018D01*
X14033818Y4057860D01*
X14057281Y4044312D01*
X14083453Y4037300D01*
X14110547D01*
X14136719Y4044312D01*
X14160182Y4057860D01*
X14179340Y4077018D01*
X14192888Y4100482D01*
X14199899Y4126653D01*
Y4153747D01*
X14192888Y4179918D01*
X14179340Y4203382D01*
X14160182Y4222540D01*
X14136719Y4236088D01*
X14110547Y4243100D01*
D02*
G37*
G36*
X14894322Y4025900D02*
X14846300D01*
Y3977878D01*
X14868130Y3986921D01*
X14885278Y4004069D01*
X14894322Y4025900D01*
D02*
G37*
G36*
X14820900D02*
X14772878D01*
X14781921Y4004069D01*
X14799069Y3986921D01*
X14820900Y3977878D01*
Y4025900D01*
D02*
G37*
%LPD*%
D14*
X13919200Y4470400D02*
X14097000Y4648200D01*
X13919200Y3886200D02*
X14046201Y3759200D01*
X13919200Y3886200D02*
Y4470400D01*
X14046201Y3759200D02*
X14338300D01*
X14414500Y3683000D01*
D15*
X14097000Y4394200D02*
D03*
Y4648200D02*
D03*
Y4902200D02*
D03*
Y5156200D02*
D03*
Y4140200D02*
D03*
Y3886200D02*
D03*
Y3632200D02*
D03*
D16*
Y5410200D02*
D03*
D17*
X15239999Y4826000D02*
D03*
X14414500Y3683000D02*
D03*
X14833600Y4038600D02*
D03*
%TF.MD5,df04d1ca177775eb8b98913781d3bcd3*%
M02*
