%TF.GenerationSoftware,Altium Limited,Altium Designer,24.4.1 (13)*%
G04 Layer_Color=65535*
%FSLAX45Y45*%
%MOMM*%
%TF.SameCoordinates,912A9E6C-26A1-424A-A32F-7B2CA38D8761*%
%TF.FilePolarity,Positive*%
%TF.FileFunction,Legend,Top*%
%TF.Part,Single*%
G01*
G75*
%TA.AperFunction,NonConductor*%
%ADD18C,0.25000*%
%ADD19C,0.20000*%
%ADD20C,0.25400*%
D18*
X14301500Y5410200D02*
G03*
X14301500Y5410200I-12500J0D01*
G01*
D19*
X14748300Y4639500D02*
X14900800D01*
X14935800Y4136500D02*
Y4626500D01*
Y4136500D02*
X15255800D01*
Y4626500D01*
X14935800D02*
X15255800D01*
X14224001Y3480200D02*
Y5562200D01*
X13970000D02*
X14224001D01*
X13970000Y3480200D02*
Y5562200D01*
Y3480200D02*
X14224001D01*
X15663000Y4489500D02*
X15833000D01*
X15663000Y4654500D02*
X15833000D01*
X14787723Y4911607D02*
X15028935D01*
X14787723Y4740393D02*
X15028935D01*
X15281393Y4641893D02*
Y4883107D01*
X15452608Y4641893D02*
Y4883107D01*
X15663000Y4235500D02*
X15833000D01*
X15663000Y4400500D02*
X15833000D01*
X15028000Y3943300D02*
X15198000D01*
X15028000Y3778300D02*
X15198000D01*
X14392999Y3981500D02*
X14563000D01*
X14392999Y4146500D02*
X14563000D01*
X14392999Y4235500D02*
X14563000D01*
X14392999Y4400500D02*
X14563000D01*
D20*
X15900383Y3555975D02*
X15849600D01*
Y3517888D01*
X15874992D01*
X15849600D01*
Y3479800D01*
X15976559Y3555975D02*
X15925775D01*
Y3517888D01*
X15951167D01*
X15925775D01*
Y3479800D01*
X16052734Y3543279D02*
X16040039Y3555975D01*
X16014647D01*
X16001952Y3543279D01*
Y3530583D01*
X16014647Y3517888D01*
X16040039D01*
X16052734Y3505192D01*
Y3492496D01*
X16040039Y3479800D01*
X16014647D01*
X16001952Y3492496D01*
X14359439Y5791159D02*
X14274800D01*
Y5727679D01*
X14317120D01*
X14274800D01*
Y5664200D01*
X14486398Y5791159D02*
X14401759D01*
Y5727679D01*
X14444080D01*
X14401759D01*
Y5664200D01*
X14613358Y5769999D02*
X14592197Y5791159D01*
X14549876D01*
X14528719Y5769999D01*
Y5748839D01*
X14549876Y5727679D01*
X14592197D01*
X14613358Y5706520D01*
Y5685360D01*
X14592197Y5664200D01*
X14549876D01*
X14528719Y5685360D01*
X14782635Y5748839D02*
X14824956Y5664200D01*
X14867274Y5748839D01*
X14909595Y5664200D02*
X14951913D01*
X14930754D01*
Y5791159D01*
X14909595Y5769999D01*
X15142352Y5727679D02*
X15226991D01*
X15396271Y5664200D02*
Y5748839D01*
X15438589Y5791159D01*
X15480910Y5748839D01*
Y5664200D01*
Y5727679D01*
X15396271D01*
X15523228Y5791159D02*
X15607867D01*
X15565549D01*
Y5664200D01*
X15734827D02*
X15650188D01*
X15734827Y5748839D01*
Y5769999D01*
X15713667Y5791159D01*
X15671347D01*
X15650188Y5769999D01*
X15861786Y5791159D02*
X15777145D01*
Y5727679D01*
X15819466Y5748839D01*
X15840627D01*
X15861786Y5727679D01*
Y5685360D01*
X15840627Y5664200D01*
X15798306D01*
X15777145Y5685360D01*
X15988745Y5791159D02*
X15904105D01*
Y5664200D01*
X15988745D01*
X15904105Y5727679D02*
X15946425D01*
X16031064Y5791159D02*
Y5685360D01*
X16052225Y5664200D01*
X16094543D01*
X16115704Y5685360D01*
Y5791159D01*
X13639799Y3682967D02*
X13673656D01*
X13656728D01*
Y3581400D01*
X13639799D01*
X13673656D01*
X13775223Y3682967D02*
X13741367D01*
X13724438Y3666039D01*
Y3598328D01*
X13741367Y3581400D01*
X13775223D01*
X13792151Y3598328D01*
Y3666039D01*
X13775223Y3682967D01*
X13826007Y3666039D02*
X13842934Y3682967D01*
X13876790D01*
X13893718Y3666039D01*
Y3649111D01*
X13876790Y3632183D01*
X13859862D01*
X13876790D01*
X13893718Y3615256D01*
Y3598328D01*
X13876790Y3581400D01*
X13842934D01*
X13826007Y3598328D01*
X13639799Y3936967D02*
X13673656D01*
X13656728D01*
Y3835400D01*
X13639799D01*
X13673656D01*
X13775223Y3936967D02*
X13741367D01*
X13724438Y3920039D01*
Y3852328D01*
X13741367Y3835400D01*
X13775223D01*
X13792151Y3852328D01*
Y3920039D01*
X13775223Y3936967D01*
X13893718Y3835400D02*
X13826007D01*
X13893718Y3903111D01*
Y3920039D01*
X13876790Y3936967D01*
X13842934D01*
X13826007Y3920039D01*
X13639799Y4190967D02*
X13673656D01*
X13656728D01*
Y4089400D01*
X13639799D01*
X13673656D01*
X13775223Y4190967D02*
X13741367D01*
X13724438Y4174039D01*
Y4106328D01*
X13741367Y4089400D01*
X13775223D01*
X13792151Y4106328D01*
Y4174039D01*
X13775223Y4190967D01*
X13826007Y4089400D02*
X13859862D01*
X13842934D01*
Y4190967D01*
X13826007Y4174039D01*
X13639799Y4444967D02*
X13673656D01*
X13656728D01*
Y4343400D01*
X13639799D01*
X13673656D01*
X13775223Y4444967D02*
X13741367D01*
X13724438Y4428039D01*
Y4360328D01*
X13741367Y4343400D01*
X13775223D01*
X13792151Y4360328D01*
Y4428039D01*
X13775223Y4444967D01*
X13826007Y4428039D02*
X13842934Y4444967D01*
X13876790D01*
X13893718Y4428039D01*
Y4360328D01*
X13876790Y4343400D01*
X13842934D01*
X13826007Y4360328D01*
Y4428039D01*
X13707510Y4682039D02*
X13690582Y4698967D01*
X13656728D01*
X13639799Y4682039D01*
Y4614328D01*
X13656728Y4597400D01*
X13690582D01*
X13707510Y4614328D01*
X13741367Y4698967D02*
Y4597400D01*
X13809079D01*
X13842934Y4698967D02*
Y4597400D01*
Y4631256D01*
X13910646Y4698967D01*
X13859862Y4648183D01*
X13910646Y4597400D01*
X13707510Y4936039D02*
X13690582Y4952967D01*
X13656728D01*
X13639799Y4936039D01*
Y4868328D01*
X13656728Y4851400D01*
X13690582D01*
X13707510Y4868328D01*
X13809079Y4936039D02*
X13792151Y4952967D01*
X13758295D01*
X13741367Y4936039D01*
Y4919111D01*
X13758295Y4902183D01*
X13792151D01*
X13809079Y4885256D01*
Y4868328D01*
X13792151Y4851400D01*
X13758295D01*
X13741367Y4868328D01*
X13639799Y5190039D02*
X13656728Y5206967D01*
X13690582D01*
X13707510Y5190039D01*
Y5173111D01*
X13690582Y5156183D01*
X13673656D01*
X13690582D01*
X13707510Y5139256D01*
Y5122328D01*
X13690582Y5105400D01*
X13656728D01*
X13639799Y5122328D01*
X13741367Y5206967D02*
Y5139256D01*
X13775223Y5105400D01*
X13809079Y5139256D01*
Y5206967D01*
X13842934Y5190039D02*
X13859862Y5206967D01*
X13893718D01*
X13910646Y5190039D01*
Y5173111D01*
X13893718Y5156183D01*
X13876790D01*
X13893718D01*
X13910646Y5139256D01*
Y5122328D01*
X13893718Y5105400D01*
X13859862D01*
X13842934Y5122328D01*
X13707510Y5444039D02*
X13690582Y5460967D01*
X13656728D01*
X13639799Y5444039D01*
Y5376328D01*
X13656728Y5359400D01*
X13690582D01*
X13707510Y5376328D01*
Y5410183D01*
X13673656D01*
X13741367Y5359400D02*
Y5460967D01*
X13809079Y5359400D01*
Y5460967D01*
X13842934D02*
Y5359400D01*
X13893718D01*
X13910646Y5376328D01*
Y5444039D01*
X13893718Y5460967D01*
X13842934D01*
X13792200Y3378167D02*
Y3301992D01*
X13830289D01*
X13842982Y3314688D01*
Y3365471D01*
X13830289Y3378167D01*
X13792200D01*
X13906464Y3301992D02*
X13881071D01*
X13868375Y3314688D01*
Y3340080D01*
X13881071Y3352775D01*
X13906464D01*
X13919159Y3340080D01*
Y3327384D01*
X13868375D01*
X13944551Y3301992D02*
X13982639D01*
X13995334Y3314688D01*
X13982639Y3327384D01*
X13957246D01*
X13944551Y3340080D01*
X13957246Y3352775D01*
X13995334D01*
X14046118Y3276600D02*
X14058813D01*
X14071510Y3289296D01*
Y3352775D01*
X14033421D01*
X14020726Y3340080D01*
Y3314688D01*
X14033421Y3301992D01*
X14071510D01*
X14096901D02*
X14122293D01*
X14109596D01*
Y3352775D01*
X14096901D01*
X14160381Y3301992D02*
Y3352775D01*
X14198470D01*
X14211163Y3340080D01*
Y3301992D01*
X14274644D02*
X14249252D01*
X14236555Y3314688D01*
Y3340080D01*
X14249252Y3352775D01*
X14274644D01*
X14287340Y3340080D01*
Y3327384D01*
X14236555D01*
X14363515Y3378167D02*
Y3301992D01*
X14325427D01*
X14312732Y3314688D01*
Y3340080D01*
X14325427Y3352775D01*
X14363515D01*
X14465082Y3378167D02*
Y3301992D01*
X14503169D01*
X14515866Y3314688D01*
Y3327384D01*
X14503169Y3340080D01*
X14465082D01*
X14503169D01*
X14515866Y3352775D01*
Y3365471D01*
X14503169Y3378167D01*
X14465082D01*
X14541258Y3352775D02*
Y3314688D01*
X14553954Y3301992D01*
X14592041D01*
Y3289296D01*
X14579346Y3276600D01*
X14566650D01*
X14592041Y3301992D02*
Y3352775D01*
X14693608Y3301992D02*
Y3378167D01*
X14731696D01*
X14744392Y3365471D01*
Y3340080D01*
X14731696Y3327384D01*
X14693608D01*
X14719000D02*
X14744392Y3301992D01*
X14782480Y3352775D02*
X14807872D01*
X14820567Y3340080D01*
Y3301992D01*
X14782480D01*
X14769785Y3314688D01*
X14782480Y3327384D01*
X14820567D01*
X14845959Y3276600D02*
Y3352775D01*
X14884047D01*
X14896742Y3340080D01*
Y3314688D01*
X14884047Y3301992D01*
X14845959D01*
X14922134Y3378167D02*
Y3301992D01*
Y3340080D01*
X14934830Y3352775D01*
X14960222D01*
X14972919Y3340080D01*
Y3301992D01*
X15011006Y3352775D02*
X15036398D01*
X15049094Y3340080D01*
Y3301992D01*
X15011006D01*
X14998309Y3314688D01*
X15011006Y3327384D01*
X15049094D01*
X15112573Y3301992D02*
X15087181D01*
X15074484Y3314688D01*
Y3340080D01*
X15087181Y3352775D01*
X15112573D01*
X15125269Y3340080D01*
Y3327384D01*
X15074484D01*
X15150661Y3301992D02*
X15176051D01*
X15163358D01*
Y3378167D01*
X15150661D01*
X15290315D02*
Y3301992D01*
Y3340080D01*
X15341100D01*
Y3378167D01*
Y3301992D01*
X15493449D02*
X15480754Y3314688D01*
X15468057Y3301992D01*
X15455362D01*
X15442667Y3314688D01*
Y3327384D01*
X15455362Y3340080D01*
X15442667Y3352775D01*
Y3365471D01*
X15455362Y3378167D01*
X15468057D01*
X15480754Y3365471D01*
Y3352775D01*
X15468057Y3340080D01*
X15480754Y3327384D01*
Y3314688D01*
X15493449Y3340080D02*
X15480754Y3327384D01*
X15455362Y3340080D02*
X15468057D01*
X15645799Y3365471D02*
X15633105Y3378167D01*
X15607713D01*
X15595016Y3365471D01*
Y3352775D01*
X15607713Y3340080D01*
X15633105D01*
X15645799Y3327384D01*
Y3314688D01*
X15633105Y3301992D01*
X15607713D01*
X15595016Y3314688D01*
X15709280Y3301992D02*
X15683888D01*
X15671191Y3314688D01*
Y3340080D01*
X15683888Y3352775D01*
X15709280D01*
X15721976Y3340080D01*
Y3327384D01*
X15671191D01*
X15760063Y3352775D02*
X15785455D01*
X15798151Y3340080D01*
Y3301992D01*
X15760063D01*
X15747368Y3314688D01*
X15760063Y3327384D01*
X15798151D01*
X15823543Y3301992D02*
Y3352775D01*
X15861630D01*
X15874326Y3340080D01*
Y3301992D01*
X15975894D02*
Y3378167D01*
X16001285Y3352775D01*
X16026677Y3378167D01*
Y3301992D01*
X14986041Y3556025D02*
Y3708375D01*
X15062218D01*
X15087608Y3682983D01*
Y3632200D01*
X15062218Y3606808D01*
X14986041D01*
X15036826D02*
X15087608Y3556025D01*
X15138393Y3682983D02*
X15163783Y3708375D01*
X15214568D01*
X15239960Y3682983D01*
Y3657592D01*
X15214568Y3632200D01*
X15239960Y3606808D01*
Y3581417D01*
X15214568Y3556025D01*
X15163783D01*
X15138393Y3581417D01*
Y3606808D01*
X15163783Y3632200D01*
X15138393Y3657592D01*
Y3682983D01*
X15163783Y3632200D02*
X15214568D01*
X15925841Y4241825D02*
Y4394175D01*
X16002017D01*
X16027408Y4368783D01*
Y4318000D01*
X16002017Y4292608D01*
X15925841D01*
X15976625D02*
X16027408Y4241825D01*
X16078192Y4394175D02*
X16179759D01*
Y4368783D01*
X16078192Y4267217D01*
Y4241825D01*
X14342241Y3759225D02*
Y3911575D01*
X14418416D01*
X14443808Y3886183D01*
Y3835400D01*
X14418416Y3810008D01*
X14342241D01*
X14393025D02*
X14443808Y3759225D01*
X14596159Y3911575D02*
X14545375Y3886183D01*
X14494592Y3835400D01*
Y3784617D01*
X14519984Y3759225D01*
X14570767D01*
X14596159Y3784617D01*
Y3810008D01*
X14570767Y3835400D01*
X14494592D01*
X15925841Y4495825D02*
Y4648175D01*
X16002017D01*
X16027408Y4622783D01*
Y4572000D01*
X16002017Y4546608D01*
X15925841D01*
X15976625D02*
X16027408Y4495825D01*
X16179759Y4648175D02*
X16078192D01*
Y4572000D01*
X16128975Y4597392D01*
X16154367D01*
X16179759Y4572000D01*
Y4521217D01*
X16154367Y4495825D01*
X16103584D01*
X16078192Y4521217D01*
X14353540Y4485640D02*
Y4637991D01*
X14429715D01*
X14455107Y4612599D01*
Y4561815D01*
X14429715Y4536423D01*
X14353540D01*
X14404323D02*
X14455107Y4485640D01*
X14582066D02*
Y4637991D01*
X14505891Y4561815D01*
X14607458D01*
X14605042Y4978425D02*
Y5130775D01*
X14681216D01*
X14706609Y5105383D01*
Y5054600D01*
X14681216Y5029208D01*
X14605042D01*
X14655824D02*
X14706609Y4978425D01*
X14757391Y5105383D02*
X14782784Y5130775D01*
X14833566D01*
X14858958Y5105383D01*
Y5079992D01*
X14833566Y5054600D01*
X14808176D01*
X14833566D01*
X14858958Y5029208D01*
Y5003817D01*
X14833566Y4978425D01*
X14782784D01*
X14757391Y5003817D01*
X14084267Y5803851D02*
X14033482D01*
X14058875D01*
Y5676892D01*
X14033482Y5651500D01*
X14008092D01*
X13982700Y5676892D01*
X14135051Y5651500D02*
X14185834D01*
X14160443D01*
Y5803851D01*
X14135051Y5778459D01*
X15252754Y4063975D02*
X15303537D01*
X15278145D01*
Y3911625D01*
X15252754D01*
X15303537D01*
X15481281Y4038583D02*
X15455888Y4063975D01*
X15405104D01*
X15379712Y4038583D01*
Y3937017D01*
X15405104Y3911625D01*
X15455888D01*
X15481281Y3937017D01*
X15532063Y3911625D02*
X15582848D01*
X15557455D01*
Y4063975D01*
X15532063Y4038583D01*
X15671783Y4825999D02*
X15697176Y4851391D01*
Y4902175D01*
X15671783Y4927567D01*
X15570216D01*
X15544826Y4902175D01*
Y4851391D01*
X15570216Y4825999D01*
X15544826Y4775216D02*
Y4724433D01*
Y4749824D01*
X15697176D01*
X15671783Y4775216D01*
%TF.MD5,1374d29dd3a14779dcfad166ebfc37a4*%
M02*
