%TF.GenerationSoftware,Altium Limited,Altium Designer,24.4.1 (13)*%
G04 Layer_Physical_Order=1*
G04 Layer_Color=255*
%FSLAX45Y45*%
%MOMM*%
%TF.SameCoordinates,912A9E6C-26A1-424A-A32F-7B2CA38D8761*%
%TF.FilePolarity,Positive*%
%TF.FileFunction,Copper,L1,Top,Signal*%
%TF.Part,Single*%
G01*
G75*
%TA.AperFunction,SMDPad,CuDef*%
%ADD10R,1.52500X0.65000*%
%ADD11R,0.90000X0.80000*%
%ADD12R,0.85872X0.91213*%
%ADD13R,0.91213X0.95872*%
%TA.AperFunction,Conductor*%
%ADD14C,0.25400*%
%TA.AperFunction,ComponentPad*%
%ADD15C,1.55000*%
%ADD16R,1.55000X1.55000*%
%TA.AperFunction,ViaPad*%
%ADD17C,0.71120*%
D10*
X15367000Y4572000D02*
D03*
Y4445000D02*
D03*
Y4318000D02*
D03*
Y4191000D02*
D03*
X14824600D02*
D03*
Y4318000D02*
D03*
Y4445000D02*
D03*
Y4572000D02*
D03*
D11*
X15833000D02*
D03*
X15663000D02*
D03*
X15833000Y4318000D02*
D03*
X15663000D02*
D03*
X15028000Y3860800D02*
D03*
X15198000D02*
D03*
X14563000Y4064000D02*
D03*
X14392999D02*
D03*
X14563000Y4318000D02*
D03*
X14392999D02*
D03*
D12*
X14986000Y4826000D02*
D03*
X14830659D02*
D03*
D13*
X15367000Y4835171D02*
D03*
Y4689829D02*
D03*
D14*
X15239999Y4826000D02*
Y4838372D01*
X15714381Y3619500D02*
X15836900Y3742018D01*
X15303268Y4724400D02*
X15367000Y4660669D01*
Y4689829D02*
X15376170Y4699000D01*
X15430499D01*
X15454671Y4723171D01*
X15357829Y4826000D02*
X15367000Y4835171D01*
X15239999Y4826000D02*
X15357829D01*
X14414500Y3683000D02*
X14478000Y3619500D01*
X15714381D01*
X14049117Y3770600D02*
X14870399D01*
X13981400Y3838317D02*
X14049117Y3770600D01*
X14870399D02*
X14959779Y3859979D01*
X13981400Y3838317D02*
Y4278600D01*
X14959779Y3859979D02*
X15027179D01*
X15836900Y3742018D02*
Y4314100D01*
X14595300Y4345300D02*
Y4371800D01*
X14668500Y4445000D01*
X14824600D01*
X14563000Y4318000D02*
X14567999D01*
X14595300Y4345300D01*
X14099400Y4142600D02*
X14302600D01*
X14392999Y4233000D02*
Y4318000D01*
X14302600Y4142600D02*
X14392999Y4233000D01*
X14097000Y4140200D02*
X14099400Y4142600D01*
Y3888600D02*
X14302600D01*
X14392999Y3979000D02*
Y4064000D01*
X14302600Y3888600D02*
X14392999Y3979000D01*
X14097000Y3886200D02*
X14099400Y3888600D01*
X14588966Y4089966D02*
Y4126116D01*
X14563000Y4064000D02*
X14588966Y4089966D01*
Y4126116D02*
X14780850Y4318000D01*
X14824600D01*
X14068420Y4648200D02*
X14097000D01*
X13981400Y4278600D02*
X14097000Y4394200D01*
Y3632200D02*
X14198599Y3530600D01*
X15875000Y3530600D01*
X16052800Y3708400D01*
X14097000Y4902200D02*
X14427200D01*
X14485101Y4844298D01*
X14122400Y5156200D02*
X14267400Y5011200D01*
X15833000Y4318000D02*
X15836900Y4314100D01*
X16052800Y3708400D02*
Y4495800D01*
X15976601Y4572000D02*
X16052800Y4495800D01*
X15833000Y4572000D02*
X15976601D01*
X15198820Y3861621D02*
X15266222D01*
X15367000Y3962400D02*
Y4191000D01*
X15198000Y3860800D02*
X15198820Y3861621D01*
X15266222D02*
X15367000Y3962400D01*
X15027179Y3859979D02*
X15028000Y3860800D01*
X14833600Y4038600D02*
Y4182000D01*
X14824600Y4191000D02*
X14833600Y4182000D01*
X15570200Y4572000D02*
X15663000D01*
X15367000Y4445000D02*
X15384816Y4462816D01*
X15461015D02*
X15570200Y4572000D01*
X15384816Y4462816D02*
X15461015D01*
X15367000Y4318000D02*
X15663000D01*
X14267400Y5011200D02*
X14803471D01*
X14986000Y4828671D01*
X15107141Y4793093D02*
X15175835Y4724400D01*
X15303268D01*
X15367000Y4572000D02*
Y4660669D01*
X14986000Y4823329D02*
X15016235Y4793093D01*
X14986000Y4823329D02*
Y4826000D01*
X15016235Y4793093D02*
X15107141D01*
X14986000Y4826000D02*
Y4828671D01*
X14485101Y4844298D02*
X14812361D01*
X14830659Y4826000D01*
X14824600Y4572000D02*
X14830659Y4578059D01*
Y4826000D01*
D15*
X14097000Y4394200D02*
D03*
Y4648200D02*
D03*
Y4902200D02*
D03*
Y5156200D02*
D03*
Y4140200D02*
D03*
Y3886200D02*
D03*
Y3632200D02*
D03*
D16*
Y5410200D02*
D03*
D17*
X15239999Y4826000D02*
D03*
X14414500Y3683000D02*
D03*
X14833600Y4038600D02*
D03*
%TF.MD5,228849e2c8e6cb61185f2b3e1516bc6a*%
M02*
