%TF.GenerationSoftware,Altium Limited,Altium Designer,24.4.1 (13)*%
G04 Layer_Physical_Order=2*
G04 Layer_Color=16711680*
%FSLAX45Y45*%
%MOMM*%
%TF.SameCoordinates,881402D5-0203-4901-B5EA-5A78FED384BD*%
%TF.FilePolarity,Positive*%
%TF.FileFunction,Copper,L2,Bot,Signal*%
%TF.Part,Single*%
G01*
G75*
%TA.AperFunction,Conductor*%
%ADD14C,0.25400*%
%TA.AperFunction,ComponentPad*%
%ADD15C,1.55000*%
%ADD16R,1.55000X1.55000*%
%TA.AperFunction,ViaPad*%
%ADD17C,0.70000*%
G36*
X16400000Y3750000D02*
X13470000D01*
Y6150000D01*
X16400000D01*
Y3750000D01*
D02*
G37*
%LPC*%
G36*
X14205864Y5886517D02*
X14178769D01*
X14152599Y5879505D01*
X14129135Y5865958D01*
X14109976Y5846799D01*
X14096429Y5823335D01*
X14089417Y5797164D01*
Y5770070D01*
X14096429Y5743899D01*
X14109976Y5720435D01*
X14129135Y5701277D01*
X14152599Y5687730D01*
X14178769Y5680717D01*
X14205864D01*
X14232034Y5687730D01*
X14255499Y5701277D01*
X14274657Y5720435D01*
X14288203Y5743899D01*
X14295216Y5770070D01*
Y5797164D01*
X14288203Y5823335D01*
X14274657Y5846799D01*
X14255499Y5865958D01*
X14232034Y5879505D01*
X14205864Y5886517D01*
D02*
G37*
G36*
X15558167Y5599883D02*
Y5552467D01*
X15605582D01*
X15596671Y5573981D01*
X15579680Y5590972D01*
X15558167Y5599883D01*
D02*
G37*
G36*
X15532767D02*
X15511253Y5590972D01*
X15494263Y5573981D01*
X15485352Y5552467D01*
X15532767D01*
Y5599883D01*
D02*
G37*
G36*
X15605582Y5527067D02*
X15558167D01*
Y5479651D01*
X15579680Y5488563D01*
X15596671Y5505553D01*
X15605582Y5527067D01*
D02*
G37*
G36*
X15532767D02*
X15485352D01*
X15494263Y5505553D01*
X15511253Y5488563D01*
X15532767Y5479651D01*
Y5527067D01*
D02*
G37*
G36*
X14205864Y5632517D02*
X14178769D01*
X14152599Y5625505D01*
X14129135Y5611958D01*
X14109976Y5592799D01*
X14096429Y5569335D01*
X14089417Y5543164D01*
Y5516070D01*
X14096429Y5489899D01*
X14109976Y5466435D01*
X14129135Y5447277D01*
X14152599Y5433730D01*
X14178769Y5426717D01*
X14205864D01*
X14232034Y5433730D01*
X14255499Y5447277D01*
X14274657Y5466435D01*
X14288203Y5489899D01*
X14295216Y5516070D01*
Y5543164D01*
X14288203Y5569335D01*
X14274657Y5592799D01*
X14255499Y5611958D01*
X14232034Y5625505D01*
X14205864Y5632517D01*
D02*
G37*
G36*
Y5378517D02*
X14178769D01*
X14152599Y5371505D01*
X14129135Y5357958D01*
X14109976Y5338799D01*
X14096429Y5315335D01*
X14089417Y5289164D01*
Y5262070D01*
X14096429Y5235899D01*
X14109976Y5212435D01*
X14129135Y5193277D01*
X14152599Y5179730D01*
X14178769Y5172717D01*
X14205864D01*
X14232034Y5179730D01*
X14255499Y5193277D01*
X14274657Y5212435D01*
X14288203Y5235899D01*
X14295216Y5262070D01*
Y5289164D01*
X14288203Y5315335D01*
X14274657Y5338799D01*
X14255499Y5357958D01*
X14232034Y5371505D01*
X14205864Y5378517D01*
D02*
G37*
G36*
Y5124517D02*
X14178769D01*
X14152599Y5117505D01*
X14129135Y5103958D01*
X14109976Y5084799D01*
X14096429Y5061335D01*
X14089417Y5035164D01*
Y5008070D01*
X14096429Y4981899D01*
X14109976Y4958435D01*
X14129135Y4939277D01*
X14152599Y4925730D01*
X14178769Y4918717D01*
X14205864D01*
X14232034Y4925730D01*
X14255499Y4939277D01*
X14274657Y4958435D01*
X14288203Y4981899D01*
X14295216Y5008070D01*
Y5035164D01*
X14288203Y5061335D01*
X14274657Y5084799D01*
X14255499Y5103958D01*
X14232034Y5117505D01*
X14205864Y5124517D01*
D02*
G37*
G36*
Y4870517D02*
X14178769D01*
X14152599Y4863505D01*
X14129135Y4849958D01*
X14109976Y4830799D01*
X14096429Y4807335D01*
X14089417Y4781164D01*
Y4754070D01*
X14096429Y4727899D01*
X14109976Y4704435D01*
X14129135Y4685277D01*
X14152599Y4671730D01*
X14178769Y4664717D01*
X14205864D01*
X14232034Y4671730D01*
X14255499Y4685277D01*
X14274657Y4704435D01*
X14288203Y4727899D01*
X14295216Y4754070D01*
Y4781164D01*
X14288203Y4807335D01*
X14274657Y4830799D01*
X14255499Y4849958D01*
X14232034Y4863505D01*
X14205864Y4870517D01*
D02*
G37*
G36*
Y4616517D02*
X14178769D01*
X14152599Y4609505D01*
X14129135Y4595958D01*
X14109976Y4576799D01*
X14096429Y4553335D01*
X14089417Y4527164D01*
Y4500070D01*
X14096429Y4473899D01*
X14109976Y4450435D01*
X14129135Y4431277D01*
X14152599Y4417730D01*
X14178769Y4410717D01*
X14205864D01*
X14232034Y4417730D01*
X14255499Y4431277D01*
X14274657Y4450435D01*
X14288203Y4473899D01*
X14295216Y4500070D01*
Y4527164D01*
X14288203Y4553335D01*
X14274657Y4576799D01*
X14255499Y4595958D01*
X14232034Y4609505D01*
X14205864Y4616517D01*
D02*
G37*
G36*
Y4362517D02*
X14178769D01*
X14152599Y4355505D01*
X14129135Y4341958D01*
X14109976Y4322799D01*
X14096429Y4299335D01*
X14089417Y4273164D01*
Y4246070D01*
X14096429Y4219899D01*
X14109976Y4196435D01*
X14129135Y4177277D01*
X14152599Y4163730D01*
X14178769Y4156717D01*
X14205864D01*
X14232034Y4163730D01*
X14255499Y4177277D01*
X14274657Y4196435D01*
X14288203Y4219899D01*
X14295216Y4246070D01*
Y4273164D01*
X14288203Y4299335D01*
X14274657Y4322799D01*
X14255499Y4341958D01*
X14232034Y4355505D01*
X14205864Y4362517D01*
D02*
G37*
G36*
X14295216Y4108517D02*
X14205017D01*
Y4018317D01*
X14295216D01*
Y4108517D01*
D02*
G37*
G36*
X14179617D02*
X14089417D01*
Y4018317D01*
X14179617D01*
Y4108517D01*
D02*
G37*
G36*
X14615131Y4422517D02*
X14591103D01*
X14568903Y4413322D01*
X14551912Y4396331D01*
X14542717Y4374131D01*
Y4350103D01*
X14551912Y4327903D01*
X14568903Y4310912D01*
X14591103Y4301717D01*
X14615131D01*
X14615575Y4301901D01*
X14642827Y4274648D01*
X14655431Y4266228D01*
X14670296Y4263271D01*
X15483878D01*
X15486403Y4250571D01*
X15468903Y4243322D01*
X15456544Y4230964D01*
X14656544D01*
X14654321Y4236331D01*
X14637331Y4253322D01*
X14615131Y4262517D01*
X14591103D01*
X14568903Y4253322D01*
X14551912Y4236331D01*
X14542717Y4214131D01*
Y4190103D01*
X14551912Y4167903D01*
X14568903Y4150912D01*
X14591103Y4141717D01*
X14615131D01*
X14637331Y4150912D01*
X14639789Y4153371D01*
X14640295Y4153271D01*
X15456544D01*
X15468903Y4140912D01*
X15491103Y4131717D01*
X15515131D01*
X15537331Y4140912D01*
X15554321Y4157903D01*
X15563516Y4180103D01*
Y4204131D01*
X15554321Y4226331D01*
X15537331Y4243322D01*
X15519830Y4250571D01*
X15522356Y4263271D01*
X15547026D01*
X15762717Y4047580D01*
Y4030103D01*
X15771912Y4007903D01*
X15788902Y3990913D01*
X15811102Y3981717D01*
X15835130D01*
X15857330Y3990913D01*
X15874321Y4007903D01*
X15883516Y4030103D01*
Y4054131D01*
X15874321Y4076331D01*
X15857330Y4093322D01*
X15835130Y4102517D01*
X15817654D01*
X15590585Y4329586D01*
X15577982Y4338007D01*
X15563116Y4340964D01*
X14686388D01*
X14663518Y4363834D01*
Y4374131D01*
X14654321Y4396331D01*
X14637331Y4413322D01*
X14615131Y4422517D01*
D02*
G37*
G36*
X15115817Y4002233D02*
Y3954817D01*
X15163232D01*
X15154321Y3976331D01*
X15137331Y3993322D01*
X15115817Y4002233D01*
D02*
G37*
G36*
X15090417D02*
X15068903Y3993322D01*
X15051912Y3976331D01*
X15043001Y3954817D01*
X15090417D01*
Y4002233D01*
D02*
G37*
G36*
X14295216Y3992917D02*
X14205017D01*
Y3902717D01*
X14295216D01*
Y3992917D01*
D02*
G37*
G36*
X14179617D02*
X14089417D01*
Y3902717D01*
X14179617D01*
Y3992917D01*
D02*
G37*
G36*
X15163232Y3929417D02*
X15115817D01*
Y3882001D01*
X15137331Y3890912D01*
X15154321Y3907903D01*
X15163232Y3929417D01*
D02*
G37*
G36*
X15090417D02*
X15043001D01*
X15051912Y3907903D01*
X15068903Y3890912D01*
X15090417Y3882001D01*
Y3929417D01*
D02*
G37*
%LPD*%
D14*
X15563116Y4302117D02*
X15823116Y4042117D01*
X14610297Y4362117D02*
X14670296Y4302117D01*
X15563116D01*
X14640295Y4192117D02*
X15503117D01*
X14603117Y4202117D02*
X14611650Y4193583D01*
X14638829D01*
X14640295Y4192117D01*
X14603117Y4362117D02*
X14610297D01*
D15*
X14192317Y5021617D02*
D03*
Y4767617D02*
D03*
Y4513617D02*
D03*
Y4259617D02*
D03*
Y5275617D02*
D03*
Y5529617D02*
D03*
Y5783617D02*
D03*
D16*
Y4005617D02*
D03*
D17*
X14603117Y4202117D02*
D03*
X15545467Y5539767D02*
D03*
X15503117Y4192117D02*
D03*
X14603117Y4362117D02*
D03*
X15823116Y4042117D02*
D03*
X15103117Y3942117D02*
D03*
%TF.MD5,9b6ffbc2ed8746669872d3cfe76d1273*%
M02*
